# xmcd CD database file
#
# Track frame offsets:
#	183
#	16963
#	49110
#	68560
#
# Disc length: 1248 seconds
#
# Revision: 0
# Processed by: cddbd v1.5.1PL0 Copyright (c) Steve Scherf et al.
# Submitted via: CDex 1.51
#
DISCID=2904de04
DTITLE=Jason Rebello - Permanent Love EP
DYEAR=1993
DGENRE=Jazz
TTITLE0=Permanent Love (7" Edit)
TTITLE1=Permanent Love (G-Club Mix)
TTITLE2=Coral Beads
TTITLE3=The Stream
EXTD=YEAR: 1993
EXTT0=
EXTT1=
EXTT2=
EXTT3=
PLAYORDER=
